<svg width="16" height="16" viewBox="0 0 16 16" fill="none" xmlns="http://www.w3.org/2000/svg">
<path d="M7.97335 8.9327C10.3379 8.9327 12.2558 7.01479 12.2558 4.65027C12.2558 2.28576 10.3379 0.380966 7.97335 0.380966C5.60883 0.380966 3.69092 2.29888 3.69092 4.65027C3.69092 7.00167 5.6088 8.9327 7.97335 8.9327ZM7.97335 1.49756C9.70732 1.49756 11.1261 2.91627 11.1261 4.65027C11.1261 6.38428 9.70732 7.80296 7.97335 7.80296C6.23937 7.80296 4.82063 6.38425 4.82063 4.65025C4.82063 2.91624 6.23934 1.49756 7.97335 1.49756Z" fill="#6E798C"/>
<path d="M0.564855 15.6191H15.4351C15.7504 15.6191 16 15.3695 16 15.0542C16 12.0985 13.5961 9.68143 10.6273 9.68143H5.37275C2.41708 9.68143 0 12.0854 0 15.0542C0 15.3695 0.249586 15.6191 0.564855 15.6191ZM5.37275 10.8111H10.6273C12.7816 10.8111 14.555 12.4138 14.8309 14.4893H1.16912C1.44498 12.4269 3.2184 10.8111 5.37275 10.8111Z" fill="#6E798C"/>
</svg>
