<svg width="16" height="15" viewBox="0 0 16 15" fill="none" xmlns="http://www.w3.org/2000/svg">
<path d="M2.68867 14.0435L11.2199 0.185461H13.0333L4.51237 14.0435H2.68867ZM0.308594 3.47224C0.308594 2.99141 0.39789 2.5415 0.576482 2.1225C0.755073 1.69662 0.99892 1.32914 1.30802 1.02003C1.61712 0.704064 1.97774 0.456783 2.38988 0.278191C2.80888 0.0927304 3.25536 0 3.72932 0C4.20327 0 4.64975 0.0927304 5.06875 0.278191C5.48776 0.456783 5.85181 0.704064 6.16091 1.02003C6.47001 1.32914 6.71386 1.69662 6.89245 2.1225C7.07791 2.5415 7.17064 2.99141 7.17064 3.47224C7.17064 3.95306 7.07791 4.40641 6.89245 4.83228C6.71386 5.25129 6.47001 5.61877 6.16091 5.93474C5.85181 6.25072 5.48776 6.50143 5.06875 6.68689C4.64975 6.86548 4.20327 6.95478 3.72932 6.95478C3.25536 6.95478 2.80888 6.86548 2.38988 6.68689C1.97774 6.50143 1.61712 6.25072 1.30802 5.93474C0.99892 5.61877 0.755073 5.25129 0.576482 4.83228C0.39789 4.40641 0.308594 3.95306 0.308594 3.47224ZM1.8644 3.47224C1.8644 3.75386 1.91249 4.01832 2.00865 4.2656C2.10482 4.51288 2.23533 4.72925 2.40018 4.91471C2.5719 5.10017 2.7711 5.24785 2.99778 5.35776C3.22445 5.46079 3.4683 5.51231 3.72932 5.51231C3.99033 5.51231 4.23418 5.46079 4.46085 5.35776C4.6944 5.24785 4.89703 5.10017 5.06875 4.91471C5.24048 4.72925 5.37442 4.51288 5.47059 4.2656C5.57362 4.01832 5.62514 3.75386 5.62514 3.47224C5.62514 3.19748 5.57362 2.93646 5.47059 2.68918C5.37442 2.43503 5.24048 2.21523 5.06875 2.02976C4.89703 1.8443 4.6944 1.69662 4.46085 1.58672C4.23418 1.47682 3.99033 1.42187 3.72932 1.42187C3.4683 1.42187 3.22445 1.47682 2.99778 1.58672C2.7711 1.69662 2.5719 1.8443 2.40018 2.02976C2.23533 2.21523 2.10482 2.43503 2.00865 2.68918C1.91249 2.93646 1.8644 3.19748 1.8644 3.47224ZM8.71615 10.7464C8.71615 10.2656 8.80201 9.81225 8.97373 9.38638C9.15233 8.9605 9.39617 8.58958 9.70527 8.27361C10.0144 7.95077 10.375 7.70006 10.7871 7.52146C11.2061 7.336 11.6526 7.24327 12.1266 7.24327C12.6005 7.24327 13.0436 7.336 13.4557 7.52146C13.8747 7.70006 14.2388 7.95077 14.5479 8.27361C14.857 8.58958 15.1008 8.9605 15.2794 9.38638C15.458 9.81225 15.5473 10.2656 15.5473 10.7464C15.5473 11.2272 15.458 11.6806 15.2794 12.1065C15.1008 12.5255 14.857 12.893 14.5479 13.2089C14.2388 13.518 13.8747 13.7653 13.4557 13.9508C13.0436 14.1294 12.6005 14.2187 12.1266 14.2187C11.6526 14.2187 11.2061 14.1294 10.7871 13.9508C10.375 13.7653 10.0144 13.518 9.70527 13.2089C9.39617 12.893 9.15233 12.5255 8.97373 12.1065C8.80201 11.6806 8.71615 11.2272 8.71615 10.7464ZM10.2617 10.7464C10.2617 11.0212 10.3097 11.2822 10.4059 11.5295C10.5021 11.7768 10.6326 11.9931 10.7974 12.1786C10.9692 12.3641 11.1684 12.5117 11.395 12.6216C11.6217 12.7247 11.8655 12.7762 12.1266 12.7762C12.3876 12.7762 12.6314 12.7247 12.8581 12.6216C13.0917 12.5117 13.2943 12.3641 13.466 12.1786C13.6377 11.9931 13.7717 11.7768 13.8678 11.5295C13.9709 11.2822 14.0224 11.0212 14.0224 10.7464C14.0224 10.4648 13.9709 10.2003 13.8678 9.95306C13.7717 9.69891 13.6377 9.47911 13.466 9.29365C13.2943 9.10818 13.0917 8.9605 12.8581 8.8506C12.6314 8.7407 12.3876 8.68575 12.1266 8.68575C11.8655 8.68575 11.6217 8.7407 11.395 8.8506C11.1684 8.9605 10.9692 9.10818 10.7974 9.29365C10.6326 9.47911 10.5021 9.69891 10.4059 9.95306C10.3097 10.2003 10.2617 10.4648 10.2617 10.7464Z" fill="#6E798C"/>
</svg>
