<svg width="20" height="20" viewBox="0 0 20 20" fill="none" xmlns="http://www.w3.org/2000/svg">
<g clip-path="url(#clip0)">
<path d="M19.3478 3.69566H0.652187C0.291992 3.69566 0 3.98766 0 4.34781V15.6521C0 16.0123 0.291992 16.3043 0.652187 16.3043H19.3479C19.708 16.3043 20 16.0123 20 15.6521V4.34781C20 3.98766 19.708 3.69566 19.3478 3.69566ZM1.30434 5H3.84742C3.58738 6.27582 2.58016 7.28304 1.30434 7.54308V5ZM1.30434 15V12.4569C2.58016 12.7169 3.58738 13.7242 3.84742 15H1.30434ZM18.6957 15H16.1526C16.4126 13.7242 17.4198 12.7169 18.6957 12.4569V15ZM18.6957 11.1337C16.6993 11.4206 15.1162 13.0037 14.8294 15H5.17062C4.88379 13.0036 3.3007 11.4205 1.30437 11.1337V8.86629C3.30074 8.57945 4.88383 6.99636 5.17062 5.00004H14.8294C15.1163 6.9964 16.6993 8.57949 18.6957 8.86629V11.1337ZM18.6957 7.54308C17.4198 7.28308 16.4126 6.27582 16.1526 5H18.6957V7.54308Z" fill="#6E798C"/>
<path d="M10.0001 6.73914C8.20207 6.73914 6.73926 8.20196 6.73926 10C6.73926 11.798 8.20207 13.2609 10.0001 13.2609C11.7982 13.2609 13.261 11.798 13.261 10C13.261 8.20196 11.7982 6.73914 10.0001 6.73914ZM10.0001 11.9565C8.92129 11.9565 8.04359 11.0788 8.04359 10C8.04359 8.92117 8.92129 8.04348 10.0001 8.04348C11.0789 8.04348 11.9566 8.92117 11.9566 10C11.9566 11.0788 11.0789 11.9565 10.0001 11.9565Z" fill="#6E798C"/>
</g>
<defs>
<clipPath id="clip0">
<rect width="20" height="20" fill="white"/>
</clipPath>
</defs>
</svg>
