<svg width="142" height="61" fill="none" xmlns="http://www.w3.org/2000/svg"><path d="M64.684 35.98H62.33l3.068-14.516h7.684l-.427 2.035h-5.331l-.953 4.508h4.984l-.447 2.015h-4.964l-1.261 5.957zm15.35-4.032h-4.816l-2.075 4.031H70.62l7.774-14.535h2.72l1.648 14.535H80.44l-.407-4.03zm-.16-2.065c-.264-2.753-.417-4.418-.456-4.994a25.802 25.802 0 01-.05-1.39 33.58 33.58 0 01-1.41 3.048l-1.707 3.336h3.623zM93.07 31.73c0 1.39-.48 2.479-1.44 3.266-.953.788-2.27 1.182-3.95 1.182-1.39 0-2.543-.248-3.456-.745V33.21c1.145.642 2.303.963 3.475.963.907 0 1.622-.192 2.144-.576.523-.39.785-.93.785-1.618 0-.457-.136-.86-.407-1.211-.272-.358-.84-.811-1.708-1.36-.695-.444-1.208-.848-1.539-1.212a4.106 4.106 0 01-.764-1.191 3.894 3.894 0 01-.258-1.44c0-.847.201-1.598.605-2.253.41-.656.986-1.162 1.728-1.52.748-.357 1.588-.536 2.521-.536 1.357 0 2.618.305 3.783.914l-.854 1.896c-1.065-.516-2.042-.774-2.928-.774-.722 0-1.301.195-1.738.585-.437.384-.655.887-.655 1.51 0 .31.05.585.149.824.099.231.251.45.456.655.212.199.659.513 1.34.943 1.027.642 1.735 1.264 2.125 1.867.39.595.586 1.28.586 2.055zm6.513 4.25H97.23L99.85 23.5h-3.763l.447-2.036h9.909l-.427 2.035h-3.783l-2.65 12.48z" fill="#fff"/><path d="M112.817 24.8c1.456 0 2.296.777 2.522 2.333h.079c.496-.768 1.059-1.347 1.688-1.738.635-.397 1.294-.595 1.976-.595.88 0 1.548.255 2.005.764.463.503.695 1.215.695 2.135 0 .423-.073 1.022-.218 1.797l-1.39 6.483h-2.334l1.42-6.672c.126-.628.189-1.069.189-1.32 0-.854-.401-1.28-1.201-1.28-.715 0-1.384.41-2.006 1.23-.616.82-1.066 1.91-1.35 3.267l-1.003 4.775h-2.333l1.42-6.672c.112-.542.168-.963.168-1.26 0-.894-.387-1.34-1.161-1.34-.728 0-1.403.42-2.026 1.26-.615.84-1.072 1.96-1.37 3.356l-.973 4.656h-2.343L107.614 25h1.827l-.208 2.035h.089c.98-1.49 2.144-2.234 3.495-2.234zm9.303 16.064c-.596 0-1.089-.076-1.48-.228v-1.887c.424.133.801.199 1.132.199.887 0 1.473-.679 1.757-2.036l2.155-10.146h-1.777l.208-1.053 1.926-.754.209-.914c.291-1.31.735-2.24 1.33-2.79.603-.556 1.453-.834 2.552-.834a5.07 5.07 0 012.095.427l-.606 1.748c-.49-.186-.94-.278-1.35-.278-.457 0-.824.142-1.102.427-.272.284-.48.75-.626 1.4l-.178.853h2.273l-.367 1.768h-2.274l-2.214 10.454c-.265 1.251-.698 2.171-1.3 2.76-.603.59-1.39.884-2.363.884zm16.084-11.855c0-.708-.163-1.26-.487-1.658-.324-.403-.788-.605-1.39-.605-.615 0-1.168.238-1.658.715-.483.47-.86 1.112-1.132 1.926a8.29 8.29 0 00-.397 2.591c0 .735.162 1.297.487 1.688.331.39.817.586 1.459.586.596 0 1.132-.225 1.608-.675.477-.45.848-1.08 1.112-1.887.265-.814.398-1.708.398-2.68zm2.353.1c0 1.337-.242 2.555-.725 3.653-.483 1.093-1.149 1.933-1.996 2.522-.84.583-1.81.874-2.909.874-1.271 0-2.28-.377-3.028-1.132-.748-.761-1.122-1.794-1.122-3.098 0-1.317.235-2.525.705-3.623.477-1.1 1.142-1.953 1.996-2.562.854-.616 1.84-.923 2.958-.923 1.291 0 2.3.384 3.029 1.151.728.768 1.092 1.814 1.092 3.138z" fill="#081F32"/><g clip-path="url(#clip0)"><path d="M60.815 21.36a.894.894 0 00-.709-.349h-24.83a.894.894 0 00-.864.662L30.83 35.044a.894.894 0 00.863 1.125H47.55l-.545 2.033h-22.98l3.103-11.584H30.5a.894.894 0 000-1.787h-4.058a.894.894 0 00-.863.663l-3.582 13.37a.894.894 0 00.863 1.125h24.83a.894.894 0 00.864-.662l.846-3.158h7.124a.894.894 0 00.863-.662l3.583-13.371a.893.893 0 00-.155-.775zm-24.854 1.438h10.565l-.304 1.137c-1.448.23-2.666 1.132-2.972 2.275-.574 2.142 1.412 2.87 2.367 3.219 1.407.515 1.35.727 1.256 1.079-.125.466-1.013 1.009-1.972 1.009-.574 0-.92-.185-1.04-.343-.05-.064-.06-.118-.037-.204a.894.894 0 00-1.726-.462 1.981 1.981 0 00.345 1.754c.31.405.766.703 1.313.874l-.333 1.246H32.857l3.104-11.584zm19.877 11.584H45.273l.302-1.128c1.471-.218 2.715-1.127 3.025-2.284.574-2.142-1.413-2.87-2.368-3.22-1.407-.514-1.35-.726-1.256-1.078.125-.466 1.014-1.009 1.972-1.009.574 0 .92.184 1.04.342.05.065.06.119.037.205a.894.894 0 001.726.462 1.982 1.982 0 00-.344-1.755c-.32-.415-.792-.72-1.36-.888l.33-1.231h10.565l-3.104 11.584z" fill="#fff"/><path d="M52.104 22.875H43.21l-3.813 11.438h8.26l4.448-11.438z" fill="#2D78E8"/><path d="M42.557 34.25l.461-2.164h-1.384l.222-1.034h1.385l.302-1.417H42.16l.255-1.21h1.384l1.177-5.537h2.992c1.188 0 2.069.223 2.642.668.572.435.859 1.067.859 1.894 0 .838-.202 1.576-.605 2.212-.392.626-.976 1.114-1.75 1.464-.764.34-1.697.51-2.8.51h-1.338l-.302 1.416H47.3l-.223 1.034H44.45l-.461 2.164h-1.432zm2.673-5.824h1.13c1.146 0 2.032-.202 2.657-.605.626-.403.94-1.093.94-2.069 0-1.103-.791-1.654-2.372-1.654h-1.432l-.923 4.328zM38.047 25.817a.894.894 0 00-1.094.631l-1.024 3.82a.894.894 0 101.727.463l1.023-3.82a.893.893 0 00-.632-1.094zM53.752 31.363a.894.894 0 001.094-.632l1.024-3.82a.894.894 0 10-1.726-.463l-1.024 3.82a.894.894 0 00.632 1.095zM28.12 30.269l-1.024 3.82a.894.894 0 001.727.462l1.023-3.82a.894.894 0 00-1.726-.462zM15.22 22.798h16.235a.894.894 0 000-1.787H15.219a.894.894 0 000 1.787zM15.157 25.725c0-.494-.4-.894-.893-.894H.894a.894.894 0 000 1.787h13.37c.493 0 .893-.4.893-.893zM22.798 25.725c0-.494-.4-.894-.893-.894h-3.82a.894.894 0 000 1.787h3.82c.493 0 .893-.4.893-.893zM20.95 28.651H7.578a.894.894 0 000 1.788h13.37a.894.894 0 000-1.788zM20.95 32.471h-7.64a.894.894 0 000 1.788h7.64a.894.894 0 000-1.788z" fill="#fff"/></g><defs><clipPath id="clip0"><path fill="#fff" d="M0 0h61v61H0z"/></clipPath></defs></svg>