<svg width="20" height="20" fill="none" xmlns="http://www.w3.org/2000/svg"><g clip-path="url(#clip0)"><path d="M13.768 8.594a.781.781 0 00-.781-.781H4.94a.781.781 0 100 1.562h8.047c.431 0 .781-.35.781-.781zM4.94 10.938a.781.781 0 000 1.562h4.887a.781.781 0 100-1.563H4.94z" fill="#081F32"/><path d="M6.776 18.438H4.163c-.861 0-1.562-.701-1.562-1.563V3.125c0-.862.7-1.563 1.562-1.563h9.605c.862 0 1.563.701 1.563 1.563V7.93a.781.781 0 001.562 0V3.125A3.129 3.129 0 0013.768 0H4.163a3.129 3.129 0 00-3.125 3.125v13.75A3.129 3.129 0 004.163 20h2.613a.781.781 0 100-1.563z" fill="#081F32"/><path d="M12.342 17.628l-1.461-1.525a.814.814 0 00-1.175 1.125l2.163 2.258h.006l.246.257c.134.14.358.14.493 0l6.837-7.137a.83.83 0 00-1.198-1.147l-5.91 6.17z" fill="#2D78E8"/><path d="M12.987 4.688H4.94a.781.781 0 100 1.562h8.047a.781.781 0 100-1.563z" fill="#081F32"/></g><defs><clipPath id="clip0"><path fill="#fff" d="M0 0h20v20H0z"/></clipPath></defs></svg>